<svg version="1.1" id="Layer_1" xmlns="http://www.w3.org/2000/svg" xmlns:xlink="http://www.w3.org/1999/xlink" x="0px" y="0px"
	 width="100%" viewBox="0 0 600 200" enable-background="new 0 0 600 200" xml:space="preserve">
<path fill="#010100" opacity="1.000000" stroke="none" 
	d="
M393.000000,201.000000 
	C262.040771,201.000000 131.581543,201.000000 1.061162,201.000000 
	C1.061162,134.394989 1.061162,67.789902 1.061162,1.092406 
	C200.875885,1.092406 400.751801,1.092406 600.813843,1.092406 
	C600.813843,67.666252 600.813843,134.333069 600.813843,201.000000 
	C531.789978,201.000000 462.644989,201.000000 393.000000,201.000000 
M9.963864,173.946091 
	C7.785945,175.389679 7.672935,176.856476 9.763507,178.551895 
	C11.527889,179.982803 13.165267,181.570328 15.227476,183.647202 
	C16.726946,185.206375 18.202324,186.789581 19.730412,188.320190 
	C24.328423,192.925873 25.909821,192.467697 28.227497,185.480804 
	C36.504013,176.824997 44.736431,168.126495 53.066429,159.522461 
	C69.359268,142.693604 85.706573,125.917450 102.413559,108.565605 
	C117.262268,93.711800 132.110977,78.857986 147.503662,63.594994 
	C149.116806,62.517136 150.663849,61.315662 152.366531,60.405258 
	C153.485046,59.807201 154.828232,59.629314 156.776245,59.032101 
	C168.179443,53.654228 172.415375,55.770180 174.520630,67.895851 
	C175.028152,70.819008 181.173782,76.259308 184.718887,76.052628 
	C189.184189,71.997406 193.649490,67.942184 198.223526,64.833076 
	C198.223526,81.111076 198.223526,97.389069 198.223526,114.075638 
	C200.490982,113.711609 201.602310,113.367912 202.708389,113.384071 
	C207.641785,113.456085 209.260941,111.220627 208.779007,106.290802 
	C208.229980,100.674423 208.466507,94.976700 208.447327,89.314041 
	C208.411316,78.683144 208.436951,68.052048 208.436951,57.411335 
	C210.794739,56.779713 212.987549,56.192291 214.978973,55.658817 
	C214.978973,52.397392 214.978973,49.478516 214.978973,46.212765 
	C207.584778,47.538589 200.544205,48.651844 193.600510,50.199772 
	C192.503204,50.444389 191.843521,52.652054 190.187576,53.982998 
	C189.128799,53.997650 188.070023,54.012302 186.378723,53.723286 
	C180.808929,51.501808 176.997345,48.042530 176.874557,41.456837 
	C176.852158,40.254856 175.146973,39.084244 173.998871,37.283001 
	C173.091202,36.419182 172.183517,35.555359 171.147110,34.012486 
	C170.211609,32.660423 169.437988,31.153435 168.315399,29.980427 
	C157.866867,19.062670 145.179779,12.807713 129.338165,11.469278 
	C119.785500,9.221599 115.123627,9.333875 112.096588,11.993893 
	C123.537666,17.819090 135.923630,22.146109 143.897369,33.770206 
	C142.570160,37.181549 141.242950,40.592888 139.577286,44.532158 
	C138.670914,47.066952 137.764542,49.601742 136.263351,52.388706 
	C134.564896,53.959503 132.813080,55.476803 131.176392,57.109528 
	C117.574814,70.678207 103.994492,84.268196 89.803619,98.043831 
	C86.136009,102.010681 82.468407,105.977524 78.279251,110.286407 
	C76.829437,111.765671 75.379623,113.244934 73.307732,115.027458 
	C67.466530,120.664215 61.625328,126.300980 55.346123,132.237488 
	C54.879169,132.763382 54.412216,133.289276 53.401749,134.215424 
	C51.245876,136.457077 49.090004,138.698715 47.007416,140.968689 
	C47.007416,140.968689 46.945496,140.918839 46.298485,141.120605 
	C38.836575,148.425034 31.374666,155.729446 23.388958,163.420853 
	C19.577858,166.548996 15.766757,169.677124 11.476742,173.074478 
	C11.180123,173.286758 10.883504,173.499054 9.963864,173.946091 
M586.892883,65.540787 
	C586.709778,61.805077 586.526672,58.069370 586.328735,54.030220 
	C582.115417,54.837292 578.734131,55.484985 575.206848,56.160648 
	C573.626709,67.036613 572.080933,77.676178 570.535156,88.315742 
	C570.127747,88.272621 569.720337,88.229500 569.312927,88.186378 
	C567.850525,78.217377 566.388123,68.248383 564.878296,57.956100 
	C561.017639,58.695724 557.642029,59.342426 554.057739,60.029110 
	C553.461853,81.393211 552.873169,102.497108 552.266663,124.241249 
	C555.771057,123.648552 558.759277,123.143150 561.686523,122.648064 
	C561.686523,109.210091 561.686523,96.251869 561.686523,83.293655 
	C562.029724,83.279060 562.372925,83.264465 562.716125,83.249878 
	C564.110901,92.344872 565.505676,101.439873 566.848816,110.198235 
	C572.248474,110.832008 573.946777,108.813980 574.287292,104.126289 
	C574.819092,96.804634 576.238098,89.547440 577.281250,82.262932 
	C577.766418,82.291534 578.251526,82.320129 578.736694,82.348732 
	C578.736694,94.573898 578.736694,106.799065 578.736694,119.485886 
	C582.457397,118.815506 585.354370,118.293556 588.557922,117.716347 
	C588.003601,100.437141 587.459595,83.479980 586.892883,65.540787 
M378.793945,67.674049 
	C377.943359,63.946903 377.012024,60.235348 376.288116,56.483749 
	C376.050079,55.250084 375.865692,53.587635 376.479614,52.674412 
	C381.265228,45.555988 380.325348,37.624958 379.544006,29.910494 
	C378.657654,21.159338 373.812988,17.740086 365.141693,18.805208 
	C362.668671,19.108982 360.233276,19.794651 357.756653,19.974283 
	C354.753387,20.192116 353.968414,21.615885 354.014740,24.498856 
	C354.258148,39.648235 354.320740,54.800602 354.425232,69.952080 
	C354.459381,74.904198 354.430603,79.856758 354.430603,85.499626 
	C358.209076,84.829796 361.208130,84.298134 364.771912,83.666367 
	C364.771912,74.871948 364.771912,66.406242 364.771912,57.940533 
	C365.244904,57.889523 365.717865,57.838512 366.190857,57.787506 
	C367.914368,65.912155 369.637878,74.036804 371.421387,82.444298 
	C374.980072,81.810570 378.027618,81.267868 381.427460,80.662422 
	C380.532837,76.282188 379.738800,72.394508 378.793945,67.674049 
M387.636078,152.594360 
	C386.080414,145.445404 384.481232,138.305389 383.006989,131.139679 
	C382.722382,129.756378 382.341614,127.881187 382.999207,126.897148 
	C388.006470,119.404457 386.473419,111.129173 385.830505,103.106796 
	C385.300964,96.498947 380.285004,92.607780 373.755157,93.163818 
	C369.530212,93.523590 365.364197,94.575043 361.406921,95.274956 
	C361.406921,116.783928 361.406921,137.720001 361.406921,159.233932 
	C364.906921,158.632568 367.904327,158.117569 371.387146,157.519150 
	C371.387146,148.729752 371.387146,140.412582 371.387146,132.095413 
	C371.874451,132.029251 372.361755,131.963089 372.849060,131.896912 
	C374.574554,139.960129 376.300018,148.023346 378.200775,156.905518 
	C381.858887,155.560516 384.808655,154.475952 387.636078,152.594360 
M546.169983,78.628456 
	C546.112183,76.964104 546.161316,75.287910 545.978638,73.637390 
	C545.075684,65.480309 539.064453,61.310928 531.110046,63.266750 
	C525.336731,64.686279 521.090271,68.926224 520.938721,75.344093 
	C520.596985,89.816307 520.574646,104.318123 521.133240,118.780441 
	C521.421814,126.251610 527.679993,130.082306 535.000183,128.486267 
	C541.996155,126.960907 545.983826,122.394058 546.154175,114.570625 
	C546.407959,102.917549 546.190796,91.254219 546.169983,78.628456 
M221.808914,69.133644 
	C220.122223,82.881065 218.435532,96.628494 216.718109,110.626373 
	C219.109711,110.295700 220.605011,110.163940 222.066589,109.866539 
	C223.644272,109.545509 225.190430,109.069572 226.783005,108.652657 
	C226.964096,106.046814 227.084778,103.729416 227.293365,101.419960 
	C227.871201,95.022194 228.232559,94.745720 235.178818,95.333878 
	C235.695984,99.131432 236.221008,102.986649 236.790054,107.165115 
	C240.212021,106.474060 243.064743,105.897964 246.321472,105.240288 
	C243.610352,83.989738 240.949631,63.134148 238.240372,41.898239 
	C233.495026,42.777348 229.302719,43.554005 224.752243,44.397011 
	C223.790588,52.437981 222.845551,60.339878 221.808914,69.133644 
M319.495789,166.953094 
	C321.747040,166.488525 323.998291,166.023972 326.713562,165.463638 
	C324.999146,157.767151 323.687408,150.242493 321.588287,142.944305 
	C319.726135,136.469955 319.774750,130.268707 321.353668,123.800705 
	C323.074829,116.750061 324.295776,109.577324 325.746094,102.401848 
	C316.490387,101.992134 316.144287,102.284042 314.803802,110.568298 
	C314.051697,115.216179 313.203247,119.848473 312.398193,124.487785 
	C312.058258,124.470139 311.718292,124.452492 311.378357,124.434845 
	C310.211487,118.026222 309.044617,111.617592 307.822662,104.906334 
	C304.367859,105.592796 301.359802,106.190498 298.054352,106.847290 
	C298.967346,110.867737 299.523743,114.486168 300.619812,117.933014 
	C304.440125,129.947235 305.209259,141.871078 301.195801,154.075409 
	C299.472778,159.314880 298.903748,164.933868 297.764496,170.608994 
	C307.651154,169.367691 307.609863,169.360764 309.084564,160.569199 
	C309.927765,155.542282 310.931427,150.542297 311.959900,145.008057 
	C312.605133,145.857910 312.881714,146.060867 312.928345,146.307358 
	C313.981079,151.867828 314.885559,157.460648 316.123138,162.978928 
	C316.451813,164.444351 317.789001,165.683609 319.495789,166.953094 
M297.922150,79.352386 
	C297.925293,79.851898 297.918396,80.351707 297.933014,80.850876 
	C298.182770,89.372620 301.562866,94.018036 307.950012,94.622147 
	C315.309906,95.318253 321.357208,90.711784 322.548401,82.633926 
	C323.233826,77.985695 322.672699,73.153641 322.672699,68.182770 
	C319.313324,68.857368 316.269928,69.468513 313.005554,70.124031 
	C313.005554,74.316772 313.203094,78.151817 312.882416,81.943039 
	C312.789032,83.047096 311.215851,84.025993 310.320984,85.062263 
	C309.514709,84.022614 308.028564,82.997971 308.005249,81.941048 
	C307.707886,68.459297 307.539886,54.972584 307.597717,41.488228 
	C307.603821,40.066795 309.252808,38.652409 310.139587,37.234772 
	C311.069885,38.763279 312.518311,40.199532 312.810669,41.841618 
	C313.264374,44.389698 312.930481,47.078011 312.930481,50.098843 
	C316.537384,49.370739 319.576569,48.757244 323.088196,48.048374 
	C322.817963,44.137184 322.974152,40.440563 322.235596,36.932304 
	C320.628448,29.298212 314.535370,26.072515 307.085388,28.494251 
	C301.217163,30.401808 297.863464,35.268158 297.786987,42.926048 
	C297.668945,54.745686 297.858246,66.568390 297.922150,79.352386 
M453.924500,124.782860 
	C453.624756,123.919044 453.538116,122.485985 452.991577,122.281403 
	C448.600189,120.637520 443.919708,124.220840 444.033783,128.977509 
	C444.264191,138.586075 449.302460,143.937363 457.040436,142.792252 
	C463.844849,141.785309 468.421661,136.997543 469.007599,130.063187 
	C469.660461,122.337471 468.318237,115.173759 463.046295,109.060905 
	C460.550690,106.167236 457.996857,103.206375 456.170868,99.889771 
	C454.710052,97.236420 453.885284,94.036499 453.619629,91.005409 
	C453.489258,89.517906 455.268982,87.862991 456.184265,86.283829 
	C457.107300,87.804718 458.430634,89.224586 458.846710,90.873413 
	C459.311615,92.715660 458.953369,94.765648 458.953369,96.977219 
	C461.812073,96.514771 464.132233,96.299538 466.350342,95.704147 
	C467.275879,95.455727 468.446289,94.544518 468.717621,93.685791 
	C470.679657,87.475830 466.305817,78.785385 460.614319,77.259293 
	C453.737640,75.415428 445.783081,79.795517 444.344086,86.899284 
	C442.825531,94.395752 443.263306,101.861206 448.116241,108.368050 
	C450.703430,111.836952 453.604126,115.094505 455.939758,118.720322 
	C457.417480,121.014404 458.560760,123.732674 459.032684,126.405701 
	C459.482117,128.951340 460.378204,132.479752 456.382172,133.140793 
	C455.934998,133.214752 454.756775,128.944168 453.949799,126.676865 
	C453.844421,126.380821 453.932678,126.015862 453.924500,124.782860 
M436.224091,116.353287 
	C433.408386,112.643944 430.077484,109.205200 427.941711,105.138756 
	C426.264557,101.945526 425.857147,98.004257 425.366974,94.331062 
	C425.256958,93.506660 427.152283,92.414665 428.124420,91.445862 
	C428.871918,92.401398 430.068512,93.269257 430.275635,94.330284 
	C430.742065,96.719589 430.718414,99.204567 430.919434,102.002243 
	C433.620056,101.571510 436.078705,101.312622 438.454071,100.720024 
	C439.174774,100.540222 440.002350,99.527191 440.208771,98.744835 
	C442.048828,91.770531 437.770691,83.610168 431.672241,82.249275 
	C424.693695,80.691986 417.436707,85.274078 415.878937,92.585182 
	C414.295288,100.017670 415.132660,107.164841 419.778992,113.490158 
	C422.535400,117.242615 425.905029,120.648262 428.054657,124.709633 
	C429.745422,127.904083 430.208313,131.833023 430.723785,135.504898 
	C430.851196,136.412613 429.063995,137.589096 428.156952,138.642044 
	C427.328674,137.583252 425.990723,136.618210 425.775208,135.446701 
	C425.283783,132.775131 425.342438,130.002380 425.177246,127.264519 
	C415.392273,128.458572 415.392273,128.458572 415.846527,135.729935 
	C416.291962,142.859894 419.685486,147.233170 425.317200,147.934906 
	C432.091583,148.779022 438.389130,144.680740 440.047485,137.975708 
	C441.883820,130.550735 440.841339,123.460938 436.224091,116.353287 
M275.864960,62.191151 
	C275.861328,60.528591 275.864166,58.865986 275.853088,57.203476 
	C275.732697,39.140129 272.018646,35.989899 254.371567,39.027382 
	C252.946472,39.272667 251.555130,39.714050 250.487701,39.979774 
	C250.487701,61.627716 250.487701,82.844429 250.487701,104.616348 
	C254.059982,103.971619 257.055054,103.431061 260.250977,102.854256 
	C260.250977,94.766579 260.250977,87.162750 260.250977,79.649719 
	C272.453796,76.215530 274.394653,74.125572 275.864960,62.191151 
M490.069153,122.089760 
	C491.209045,130.101334 493.993011,133.667038 499.554382,134.238419 
	C506.064941,134.907349 511.794220,132.079193 513.346313,126.090904 
	C514.790405,120.519173 514.791382,114.573387 515.493469,108.194763 
	C511.196960,108.996414 508.282623,109.540176 505.072205,110.139183 
	C505.072205,113.824631 505.329468,117.329735 504.952179,120.765144 
	C504.789398,122.247490 503.314240,123.585701 502.435272,124.989395 
	C501.599945,123.629227 500.102112,122.297844 500.041534,120.904015 
	C499.745697,114.094414 499.839752,107.268112 499.783295,100.447815 
	C499.733734,94.459366 499.479523,88.463005 499.735748,82.488144 
	C499.802887,80.923225 501.431854,79.425301 502.343597,77.896614 
	C503.208282,79.468376 504.526367,80.958176 504.828857,82.631554 
	C505.257568,85.003128 504.937653,87.510033 504.937653,90.364609 
	C508.493042,89.720490 511.394165,89.194893 514.990417,88.543365 
	C514.691956,84.564934 514.798523,80.734406 514.044373,77.081558 
	C512.691040,70.526398 507.664764,67.530807 500.991394,68.760254 
	C494.145996,70.021408 490.042664,75.163528 489.970032,83.244034 
	C489.856415,95.885437 490.006653,108.529205 490.069153,122.089760 
M340.337769,147.871140 
	C339.819733,142.985046 339.862793,139.041443 346.549133,138.081558 
	C351.444885,137.378723 354.419159,133.229965 355.106079,128.156143 
	C355.594391,124.549179 355.818878,120.877777 355.805237,117.236465 
	C355.742218,100.409988 351.769318,97.084053 335.398254,99.924309 
	C335.070770,99.981125 334.737793,100.036613 334.406952,100.039146 
	C330.897003,100.066086 330.159058,101.984596 330.214935,105.214737 
	C330.525940,123.187408 330.637939,141.163544 330.813171,159.138535 
	C330.830597,160.926254 330.815521,162.714294 330.815521,164.903885 
	C334.498016,164.126617 337.492249,163.494629 340.350922,162.891251 
	C340.350922,157.770584 340.350922,153.283264 340.337769,147.871140 
M329.180420,66.499413 
	C329.180420,74.249023 329.180420,81.998634 329.180420,90.266754 
	C336.332886,88.956230 342.491791,87.827744 348.824127,86.667488 
	C348.824127,83.349846 348.824127,80.274368 348.824127,77.022682 
	C345.590363,77.508865 342.674194,77.947296 339.419708,78.436600 
	C339.419708,72.229820 339.419708,66.517601 339.419708,60.708893 
	C342.285156,60.072239 344.847595,59.502911 347.330139,58.951328 
	C347.330139,55.699730 347.330139,52.797764 347.330139,49.679829 
	C344.399933,49.954891 341.851929,50.194077 339.330017,50.430817 
	C339.330017,44.420902 339.330017,38.833408 339.330017,33.335903 
	C342.411469,32.680786 345.141235,32.100437 347.840637,31.526550 
	C347.840637,28.187588 347.840637,25.162849 347.840637,21.874933 
	C341.376953,23.073629 335.369263,24.187759 329.173340,25.336796 
	C329.173340,38.897896 329.173340,52.198681 329.180420,66.499413 
M400.680420,152.134048 
	C404.538391,151.410049 408.396362,150.686050 411.962036,150.016907 
	C411.962036,146.597244 411.962036,143.844498 411.962036,140.716187 
	C408.810364,141.142776 406.061249,141.514862 402.470917,142.000809 
	C402.470917,138.622864 402.501862,135.515350 402.464783,132.408630 
	C402.373291,124.740677 402.361725,124.744789 409.856934,122.883682 
	C410.134766,122.814697 410.355438,122.515541 410.481598,122.417648 
	C410.481598,119.419830 410.481598,116.546288 410.481598,113.626228 
	C407.644165,113.863457 405.229401,114.065353 402.524353,114.291519 
	C402.524353,108.384674 402.524353,102.977745 402.524353,97.508690 
	C405.563385,96.849838 408.306091,96.255226 411.116211,95.646004 
	C411.116211,92.511765 411.116211,89.500580 411.116211,86.165619 
	C405.887299,87.134621 401.192017,88.272476 396.429199,88.795227 
	C393.138000,89.156464 392.372223,90.575394 392.420746,93.628708 
	C392.674774,109.620781 392.753632,125.615685 392.878998,141.609711 
	C392.908752,145.407608 392.883392,149.205917 392.883392,153.428513 
	C395.604370,152.983124 397.708191,152.638748 400.680420,152.134048 
M294.426056,108.999100 
	C288.129974,109.445793 281.833923,109.892494 276.101990,110.299164 
	C276.101990,132.714523 276.101990,153.710342 276.101990,174.962463 
	C281.327576,173.982452 285.861694,172.764267 290.465668,172.377579 
	C294.633240,172.027557 295.973450,170.235123 295.317535,166.357376 
	C295.083710,164.974945 295.037567,163.560745 294.892609,162.021927 
	C291.725281,162.458206 288.994385,162.834366 285.509277,163.314407 
	C285.509277,160.684113 285.535675,158.571457 285.504761,156.459610 
	C285.364471,146.881180 285.358643,146.881271 293.513000,143.787003 
	C293.513000,140.884384 293.513000,138.003372 293.513000,134.901566 
	C290.685150,135.236694 288.269409,135.522995 285.510223,135.849991 
	C285.510223,130.095154 285.510223,124.680801 285.510223,118.854530 
	C290.677216,118.128349 296.603760,117.790749 294.426056,108.999100 
M290.777496,96.796730 
	C290.896423,95.982590 291.121521,95.168091 291.118744,94.354362 
	C291.051758,74.716240 290.966736,55.078163 290.853363,35.440266 
	C290.848145,34.533241 290.550018,33.627903 290.328400,32.386086 
	C286.996277,33.047333 284.001770,33.641586 281.335297,34.170742 
	C281.335297,56.018742 281.335297,77.269264 281.335297,98.983627 
	C284.541748,98.346519 287.281281,97.802185 290.777496,96.796730 
M481.595337,127.833893 
	C480.471222,127.716499 479.284607,127.308456 478.234283,127.534286 
	C474.560272,128.324234 472.915833,130.787613 473.567413,134.450760 
	C474.164154,137.805740 476.442932,139.223862 479.743225,138.485474 
	C483.453369,137.655350 484.929047,135.076721 484.209747,131.448685 
	C483.975708,130.268250 482.937836,129.247192 481.595337,127.833893 
z"/>
<path fill="#7BD455" opacity="1.000000" stroke="none" 
	d="
M586.904175,66.031799 
	C587.459595,83.479980 588.003601,100.437141 588.557922,117.716347 
	C585.354370,118.293556 582.457397,118.815506 578.736694,119.485886 
	C578.736694,106.799065 578.736694,94.573898 578.736694,82.348732 
	C578.251526,82.320129 577.766418,82.291534 577.281250,82.262932 
	C576.238098,89.547440 574.819092,96.804634 574.287292,104.126289 
	C573.946777,108.813980 572.248474,110.832008 566.848816,110.198235 
	C565.505676,101.439873 564.110901,92.344872 562.716125,83.249878 
	C562.372925,83.264465 562.029724,83.279060 561.686523,83.293655 
	C561.686523,96.251869 561.686523,109.210091 561.686523,122.648064 
	C558.759277,123.143150 555.771057,123.648552 552.266663,124.241249 
	C552.873169,102.497108 553.461853,81.393211 554.057739,60.029110 
	C557.642029,59.342426 561.017639,58.695724 564.878296,57.956100 
	C566.388123,68.248383 567.850525,78.217377 569.312927,88.186378 
	C569.720337,88.229500 570.127747,88.272621 570.535156,88.315742 
	C572.080933,77.676178 573.626709,67.036613 575.206848,56.160648 
	C578.734131,55.484985 582.115417,54.837292 586.328735,54.030220 
	C586.526672,58.069370 586.709778,61.805077 586.904175,66.031799 
z"/>
<path fill="#292522" opacity="1.000000" stroke="none" 
	d="
M53.945259,133.815155 
	C54.412216,133.289276 54.879169,132.763382 55.944057,132.077255 
	C62.337933,126.186081 68.133873,120.455139 73.929810,114.724197 
	C75.379623,113.244934 76.829437,111.765671 78.917801,110.101761 
	C83.354195,106.436356 87.152039,102.955589 91.353310,99.328903 
	C94.190239,99.441925 96.623734,99.700867 99.244621,100.281631 
	C100.298447,103.442131 101.164879,106.280800 102.031319,109.119476 
	C85.706573,125.917450 69.359268,142.693604 53.066429,159.522461 
	C44.736431,168.126495 36.504013,176.824997 27.715469,185.744537 
	C26.800434,186.007874 26.397425,186.007492 25.690498,185.866791 
	C23.971952,184.325027 22.576771,182.903290 21.138672,181.526352 
	C18.089518,178.606949 15.018003,175.710892 11.955658,172.805267 
	C15.766757,169.677124 19.577858,166.548996 24.017759,163.188400 
	C28.062973,160.172180 31.745193,157.652069 34.831429,154.540771 
	C39.104359,150.233139 42.928928,145.480759 46.945496,140.918839 
	C46.945496,140.918839 47.007416,140.968689 47.336918,140.938065 
	C51.397251,139.993378 53.702198,137.816971 53.945259,133.815155 
M93.977234,104.351273 
	C91.271347,103.798187 89.684982,104.914078 90.234718,107.631020 
	C90.411446,108.504456 92.558975,109.809853 93.408844,109.561638 
	C96.028709,108.796486 96.451424,106.919769 93.977234,104.351273 
M70.542709,130.873093 
	C68.926010,130.661591 67.309311,130.450104 65.692612,130.238602 
	C66.053879,131.638062 66.415154,133.037506 66.776421,134.436966 
	C68.104637,133.485916 69.432854,132.534851 70.542709,130.873093 
M84.695190,118.067177 
	C85.338165,116.591927 85.981140,115.116684 86.624115,113.641434 
	C85.206383,113.586540 83.788643,113.531639 82.370911,113.476746 
	C82.896599,114.993263 83.422295,116.509773 84.695190,118.067177 
M78.725845,122.702522 
	C77.110016,122.478905 75.494186,122.255280 73.878357,122.031654 
	C74.215553,123.423615 74.552750,124.815575 74.889946,126.207542 
	C76.229301,125.282013 77.568649,124.356483 78.725845,122.702522 
z"/>
<path fill="#F95555" opacity="1.000000" stroke="none" 
	d="
M378.869385,68.090439 
	C379.738800,72.394508 380.532837,76.282188 381.427460,80.662422 
	C378.027618,81.267868 374.980072,81.810570 371.421387,82.444298 
	C369.637878,74.036804 367.914368,65.912155 366.190857,57.787506 
	C365.717865,57.838512 365.244904,57.889523 364.771912,57.940533 
	C364.771912,66.406242 364.771912,74.871948 364.771912,83.666367 
	C361.208130,84.298134 358.209076,84.829796 354.430603,85.499626 
	C354.430603,79.856758 354.459381,74.904198 354.425232,69.952080 
	C354.320740,54.800602 354.258148,39.648235 354.014740,24.498856 
	C353.968414,21.615885 354.753387,20.192116 357.756653,19.974283 
	C360.233276,19.794651 362.668671,19.108982 365.141693,18.805208 
	C373.812988,17.740086 378.657654,21.159338 379.544006,29.910494 
	C380.325348,37.624958 381.265228,45.555988 376.479614,52.674412 
	C375.865692,53.587635 376.050079,55.250084 376.288116,56.483749 
	C377.012024,60.235348 377.943359,63.946903 378.869385,68.090439 
M364.056091,36.553108 
	C364.056091,40.327328 364.056091,44.101543 364.056091,47.928020 
	C369.948029,47.229424 371.313934,43.440216 369.881470,32.916832 
	C369.457123,29.799397 368.485168,27.036659 364.049255,28.471394 
	C364.049255,30.963245 364.049255,33.279350 364.056091,36.553108 
z"/>
<path fill="#F93030" opacity="1.000000" stroke="none" 
	d="
M387.697266,152.992874 
	C384.808655,154.475952 381.858887,155.560516 378.200775,156.905518 
	C376.300018,148.023346 374.574554,139.960129 372.849060,131.896912 
	C372.361755,131.963089 371.874451,132.029251 371.387146,132.095413 
	C371.387146,140.412582 371.387146,148.729752 371.387146,157.519150 
	C367.904327,158.117569 364.906921,158.632568 361.406921,159.233932 
	C361.406921,137.720001 361.406921,116.783928 361.406921,95.274956 
	C365.364197,94.575043 369.530212,93.523590 373.755157,93.163818 
	C380.285004,92.607780 385.300964,96.498947 385.830505,103.106796 
	C386.473419,111.129173 388.006470,119.404457 382.999207,126.897148 
	C382.341614,127.881187 382.722382,129.756378 383.006989,131.139679 
	C384.481232,138.305389 386.080414,145.445404 387.697266,152.992874 
M375.864471,120.031036 
	C376.030151,115.571053 376.413605,111.104553 376.280243,106.653526 
	C376.199524,103.958778 374.938965,101.769211 371.191650,102.806229 
	C371.191650,109.333801 371.191650,115.856308 371.191650,123.226204 
	C373.034271,122.138397 374.243317,121.424606 375.864471,120.031036 
z"/>
<path fill="#7CD555" opacity="1.000000" stroke="none" 
	d="
M546.171997,79.111855 
	C546.190796,91.254219 546.407959,102.917549 546.154175,114.570625 
	C545.983826,122.394058 541.996155,126.960907 535.000183,128.486267 
	C527.679993,130.082306 521.421814,126.251610 521.133240,118.780441 
	C520.574646,104.318123 520.596985,89.816307 520.938721,75.344093 
	C521.090271,68.926224 525.336731,64.686279 531.110046,63.266750 
	C539.064453,61.310928 545.075684,65.480309 545.978638,73.637390 
	C546.161316,75.287910 546.112183,76.964104 546.171997,79.111855 
M530.229675,101.493050 
	C530.331909,106.474297 530.279480,111.467316 530.657227,116.427589 
	C530.740051,117.515205 532.354248,118.486198 533.263184,119.510895 
	C534.292175,118.597672 535.648560,117.859077 536.255554,116.720825 
	C536.831909,115.640053 536.749695,114.140213 536.741211,112.826065 
	C536.666016,101.192017 536.547607,89.558228 536.425293,77.924545 
	C536.414795,76.930969 536.548157,75.809761 536.142639,74.977982 
	C535.620789,73.907532 534.474182,72.209061 533.859985,72.314537 
	C532.661072,72.520424 531.229004,73.577408 530.664062,74.677635 
	C530.032349,75.907875 530.129761,77.576927 530.127991,79.055275 
	C530.119324,86.201942 530.184082,93.348701 530.229675,101.493050 
z"/>
<path fill="#F85555" opacity="1.000000" stroke="none" 
	d="
M221.854721,68.687714 
	C222.845551,60.339878 223.790588,52.437981 224.752243,44.397011 
	C229.302719,43.554005 233.495026,42.777348 238.240372,41.898239 
	C240.949631,63.134148 243.610352,83.989738 246.321472,105.240288 
	C243.064743,105.897964 240.212021,106.474060 236.790054,107.165115 
	C236.221008,102.986649 235.695984,99.131432 235.178818,95.333878 
	C228.232559,94.745720 227.871201,95.022194 227.293365,101.419960 
	C227.084778,103.729416 226.964096,106.046814 226.783005,108.652657 
	C225.190430,109.069572 223.644272,109.545509 222.066589,109.866539 
	C220.605011,110.163940 219.109711,110.295700 216.718109,110.626373 
	C218.435532,96.628494 220.122223,82.881065 221.854721,68.687714 
M229.885178,71.274315 
	C229.506027,76.010551 229.126877,80.746788 228.706741,85.994965 
	C231.012054,85.383385 232.531448,84.980301 234.317764,84.506409 
	C233.473938,76.888504 232.666626,69.600143 231.859314,62.311787 
	C231.476349,62.296047 231.093399,62.280308 230.710449,62.264568 
	C230.451569,64.963646 230.192688,67.662727 229.885178,71.274315 
z"/>
<path fill="#F83030" opacity="1.000000" stroke="none" 
	d="
M319.079468,166.989899 
	C317.789001,165.683609 316.451813,164.444351 316.123138,162.978928 
	C314.885559,157.460648 313.981079,151.867828 312.928345,146.307358 
	C312.881714,146.060867 312.605133,145.857910 311.959900,145.008057 
	C310.931427,150.542297 309.927765,155.542282 309.084564,160.569199 
	C307.609863,169.360764 307.651154,169.367691 297.764496,170.608994 
	C298.903748,164.933868 299.472778,159.314880 301.195801,154.075409 
	C305.209259,141.871078 304.440125,129.947235 300.619812,117.933014 
	C299.523743,114.486168 298.967346,110.867737 298.054352,106.847290 
	C301.359802,106.190498 304.367859,105.592796 307.822662,104.906334 
	C309.044617,111.617592 310.211487,118.026222 311.378357,124.434845 
	C311.718292,124.452492 312.058258,124.470139 312.398193,124.487785 
	C313.203247,119.848473 314.051697,115.216179 314.803802,110.568298 
	C316.144287,102.284042 316.490387,101.992134 325.746094,102.401848 
	C324.295776,109.577324 323.074829,116.750061 321.353668,123.800705 
	C319.774750,130.268707 319.726135,136.469955 321.588287,142.944305 
	C323.687408,150.242493 324.999146,157.767151 326.713562,165.463638 
	C323.998291,166.023972 321.747040,166.488525 319.079468,166.989899 
z"/>
<path fill="#F85454" opacity="1.000000" stroke="none" 
	d="
M297.919678,78.871094 
	C297.858246,66.568390 297.668945,54.745686 297.786987,42.926048 
	C297.863464,35.268158 301.217163,30.401808 307.085388,28.494251 
	C314.535370,26.072515 320.628448,29.298212 322.235596,36.932304 
	C322.974152,40.440563 322.817963,44.137184 323.088196,48.048374 
	C319.576569,48.757244 316.537384,49.370739 312.930481,50.098843 
	C312.930481,47.078011 313.264374,44.389698 312.810669,41.841618 
	C312.518311,40.199532 311.069885,38.763279 310.139587,37.234764 
	C309.252808,38.652409 307.603821,40.066795 307.597717,41.488228 
	C307.539886,54.972584 307.707886,68.459297 308.005249,81.941048 
	C308.028564,82.997971 309.514709,84.022614 310.320984,85.062263 
	C311.215851,84.025993 312.789032,83.047096 312.882416,81.943039 
	C313.203094,78.151817 313.005554,74.316772 313.005554,70.124031 
	C316.269928,69.468513 319.313324,68.857368 322.672699,68.182770 
	C322.672699,73.153641 323.233826,77.985695 322.548401,82.633926 
	C321.357208,90.711784 315.309906,95.318253 307.950012,94.622147 
	C301.562866,94.018036 298.182770,89.372620 297.933014,80.850876 
	C297.918396,80.351707 297.925293,79.851898 297.919678,78.871094 
z"/>
<path fill="#F83030" opacity="1.000000" stroke="none" 
	d="
M453.927856,125.232841 
	C453.932678,126.015862 453.844421,126.380821 453.949799,126.676865 
	C454.756775,128.944168 455.934998,133.214752 456.382172,133.140793 
	C460.378204,132.479752 459.482117,128.951340 459.032684,126.405701 
	C458.560760,123.732674 457.417480,121.014404 455.939758,118.720322 
	C453.604126,115.094505 450.703430,111.836952 448.116241,108.368050 
	C443.263306,101.861206 442.825531,94.395752 444.344086,86.899284 
	C445.783081,79.795517 453.737640,75.415428 460.614319,77.259293 
	C466.305817,78.785385 470.679657,87.475830 468.717621,93.685791 
	C468.446289,94.544518 467.275879,95.455727 466.350342,95.704147 
	C464.132233,96.299538 461.812073,96.514771 458.953369,96.977219 
	C458.953369,94.765648 459.311615,92.715660 458.846710,90.873413 
	C458.430634,89.224586 457.107300,87.804718 456.184265,86.283836 
	C455.268982,87.862991 453.489258,89.517906 453.619629,91.005409 
	C453.885284,94.036499 454.710052,97.236420 456.170868,99.889771 
	C457.996857,103.206375 460.550690,106.167236 463.046295,109.060905 
	C468.318237,115.173759 469.660461,122.337471 469.007599,130.063187 
	C468.421661,136.997543 463.844849,141.785309 457.040436,142.792252 
	C449.302460,143.937363 444.264191,138.586075 444.033783,128.977509 
	C443.919708,124.220840 448.600189,120.637520 452.991577,122.281403 
	C453.538116,122.485985 453.624756,123.919044 453.927856,125.232841 
z"/>
<path fill="#F93030" opacity="1.000000" stroke="none" 
	d="
M436.448303,116.644684 
	C440.841339,123.460938 441.883820,130.550735 440.047485,137.975708 
	C438.389130,144.680740 432.091583,148.779022 425.317200,147.934906 
	C419.685486,147.233170 416.291962,142.859894 415.846527,135.729935 
	C415.392273,128.458572 415.392273,128.458572 425.177246,127.264519 
	C425.342438,130.002380 425.283783,132.775131 425.775208,135.446701 
	C425.990723,136.618210 427.328674,137.583252 428.156952,138.642044 
	C429.063995,137.589096 430.851196,136.412613 430.723785,135.504898 
	C430.208313,131.833023 429.745422,127.904083 428.054657,124.709633 
	C425.905029,120.648262 422.535400,117.242615 419.778992,113.490158 
	C415.132660,107.164841 414.295288,100.017670 415.878937,92.585182 
	C417.436707,85.274078 424.693695,80.691986 431.672241,82.249275 
	C437.770691,83.610168 442.048828,91.770531 440.208771,98.744835 
	C440.002350,99.527191 439.174774,100.540222 438.454071,100.720024 
	C436.078705,101.312622 433.620056,101.571510 430.919434,102.002243 
	C430.718414,99.204567 430.742065,96.719589 430.275635,94.330284 
	C430.068512,93.269257 428.871918,92.401398 428.124420,91.445862 
	C427.152283,92.414665 425.256958,93.506660 425.366974,94.331062 
	C425.857147,98.004257 426.264557,101.945526 427.941711,105.138756 
	C430.077484,109.205200 433.408386,112.643944 436.448303,116.644684 
z"/>
<path fill="#F95555" opacity="1.000000" stroke="none" 
	d="
M275.851288,62.646721 
	C274.394653,74.125572 272.453796,76.215530 260.250977,79.649719 
	C260.250977,87.162750 260.250977,94.766579 260.250977,102.854256 
	C257.055054,103.431061 254.059982,103.971619 250.487701,104.616348 
	C250.487701,82.844429 250.487701,61.627716 250.487701,39.979774 
	C251.555130,39.714050 252.946472,39.272667 254.371567,39.027382 
	C272.018646,35.989899 275.732697,39.140129 275.853088,57.203476 
	C275.864166,58.865986 275.861328,60.528591 275.851288,62.646721 
M259.967316,53.654778 
	C259.967316,58.960529 259.967316,64.266281 259.967316,69.639244 
	C265.919861,68.548416 266.831360,65.956055 265.822662,53.056355 
	C265.576294,49.906044 265.284546,46.425770 259.963074,47.331635 
	C259.963074,49.123005 259.963074,50.916454 259.967316,53.654778 
z"/>
<path fill="#7AD254" opacity="1.000000" stroke="none" 
	d="
M490.057129,121.630867 
	C490.006653,108.529205 489.856415,95.885437 489.970032,83.244034 
	C490.042664,75.163528 494.145996,70.021408 500.991394,68.760254 
	C507.664764,67.530807 512.691040,70.526398 514.044373,77.081558 
	C514.798523,80.734406 514.691956,84.564934 514.990417,88.543365 
	C511.394165,89.194893 508.493042,89.720490 504.937653,90.364609 
	C504.937653,87.510033 505.257568,85.003128 504.828857,82.631554 
	C504.526367,80.958176 503.208282,79.468376 502.343597,77.896606 
	C501.431854,79.425301 499.802887,80.923225 499.735748,82.488144 
	C499.479523,88.463005 499.733734,94.459366 499.783295,100.447815 
	C499.839752,107.268112 499.745697,114.094414 500.041534,120.904015 
	C500.102112,122.297844 501.599945,123.629227 502.435242,124.989395 
	C503.314240,123.585701 504.789398,122.247490 504.952179,120.765144 
	C505.329468,117.329735 505.072205,113.824631 505.072205,110.139183 
	C508.282623,109.540176 511.196960,108.996414 515.493469,108.194763 
	C514.791382,114.573387 514.790405,120.519173 513.346313,126.090904 
	C511.794220,132.079193 506.064941,134.907349 499.554382,134.238419 
	C493.993011,133.667038 491.209045,130.101334 490.057129,121.630867 
z"/>
<path fill="#F93030" opacity="1.000000" stroke="none" 
	d="
M340.344360,148.333527 
	C340.350922,153.283264 340.350922,157.770584 340.350922,162.891251 
	C337.492249,163.494629 334.498016,164.126617 330.815521,164.903885 
	C330.815521,162.714294 330.830597,160.926254 330.813171,159.138535 
	C330.637939,141.163544 330.525940,123.187408 330.214935,105.214737 
	C330.159058,101.984596 330.897003,100.066086 334.406952,100.039146 
	C334.737793,100.036613 335.070770,99.981125 335.398254,99.924309 
	C351.769318,97.084053 355.742218,100.409988 355.805237,117.236465 
	C355.818878,120.877777 355.594391,124.549179 355.106079,128.156143 
	C354.419159,133.229965 351.444885,137.378723 346.549133,138.081558 
	C339.862793,139.041443 339.819733,142.985046 340.344360,148.333527 
M345.981384,123.138153 
	C345.951843,119.647278 346.136017,116.137421 345.828156,112.671265 
	C345.560577,109.658920 344.395294,107.140480 340.565857,108.298820 
	C340.565857,115.685013 340.565857,122.852844 340.565857,130.257706 
	C345.024719,129.923096 345.799042,127.228088 345.981384,123.138153 
z"/>
<path fill="#F85454" opacity="1.000000" stroke="none" 
	d="
M329.176880,65.999435 
	C329.173340,52.198681 329.173340,38.897896 329.173340,25.336796 
	C335.369263,24.187759 341.376953,23.073629 347.840637,21.874933 
	C347.840637,25.162849 347.840637,28.187588 347.840637,31.526550 
	C345.141235,32.100437 342.411469,32.680786 339.330017,33.335903 
	C339.330017,38.833408 339.330017,44.420902 339.330017,50.430817 
	C341.851929,50.194077 344.399933,49.954891 347.330139,49.679829 
	C347.330139,52.797764 347.330139,55.699730 347.330139,58.951328 
	C344.847595,59.502911 342.285156,60.072239 339.419708,60.708893 
	C339.419708,66.517601 339.419708,72.229820 339.419708,78.436600 
	C342.674194,77.947296 345.590363,77.508865 348.824127,77.022682 
	C348.824127,80.274368 348.824127,83.349846 348.824127,86.667488 
	C342.491791,87.827744 336.332886,88.956230 329.180420,90.266754 
	C329.180420,81.998634 329.180420,74.249023 329.176880,65.999435 
z"/>
<path fill="#F93030" opacity="1.000000" stroke="none" 
	d="
M400.246216,152.214203 
	C397.708191,152.638748 395.604370,152.983124 392.883392,153.428513 
	C392.883392,149.205917 392.908752,145.407608 392.878998,141.609711 
	C392.753632,125.615685 392.674774,109.620781 392.420746,93.628708 
	C392.372223,90.575394 393.138000,89.156464 396.429199,88.795227 
	C401.192017,88.272476 405.887299,87.134621 411.116211,86.165619 
	C411.116211,89.500580 411.116211,92.511765 411.116211,95.646004 
	C408.306091,96.255226 405.563385,96.849838 402.524353,97.508690 
	C402.524353,102.977745 402.524353,108.384674 402.524353,114.291519 
	C405.229401,114.065353 407.644165,113.863457 410.481598,113.626228 
	C410.481598,116.546288 410.481598,119.419830 410.481598,122.417648 
	C410.355438,122.515541 410.134766,122.814697 409.856934,122.883682 
	C402.361725,124.744789 402.373291,124.740677 402.464783,132.408630 
	C402.501862,135.515350 402.470917,138.622864 402.470917,142.000809 
	C406.061249,141.514862 408.810364,141.142776 411.962036,140.716187 
	C411.962036,143.844498 411.962036,146.597244 411.962036,150.016907 
	C408.396362,150.686050 404.538391,151.410049 400.246216,152.214203 
z"/>
<path fill="#F93030" opacity="1.000000" stroke="none" 
	d="
M294.480652,109.425537 
	C296.603760,117.790749 290.677216,118.128349 285.510223,118.854530 
	C285.510223,124.680801 285.510223,130.095154 285.510223,135.849991 
	C288.269409,135.522995 290.685150,135.236694 293.513000,134.901566 
	C293.513000,138.003372 293.513000,140.884384 293.513000,143.787003 
	C285.358643,146.881271 285.364471,146.881180 285.504761,156.459610 
	C285.535675,158.571457 285.509277,160.684113 285.509277,163.314407 
	C288.994385,162.834366 291.725281,162.458206 294.892609,162.021927 
	C295.037567,163.560745 295.083710,164.974945 295.317535,166.357376 
	C295.973450,170.235123 294.633240,172.027557 290.465668,172.377579 
	C285.861694,172.764267 281.327576,173.982452 276.101990,174.962463 
	C276.101990,153.710342 276.101990,132.714523 276.101990,110.299164 
	C281.833923,109.892494 288.129974,109.445793 294.480652,109.425537 
z"/>
<path fill="#F85555" opacity="1.000000" stroke="none" 
	d="
M190.981491,53.952103 
	C191.843521,52.652054 192.503204,50.444389 193.600510,50.199772 
	C200.544205,48.651844 207.584778,47.538589 214.978973,46.212765 
	C214.978973,49.478516 214.978973,52.397392 214.978973,55.658817 
	C212.987549,56.192291 210.794739,56.779713 208.436951,57.411335 
	C208.436951,68.052048 208.411316,78.683144 208.447327,89.314041 
	C208.466507,94.976700 208.229980,100.674423 208.779007,106.290802 
	C209.260941,111.220627 207.641785,113.456085 202.708389,113.384071 
	C201.602310,113.367912 200.490982,113.711609 198.223526,114.075638 
	C198.223526,97.389069 198.223526,81.111076 198.361023,64.102127 
	C197.898087,62.015369 197.567001,60.426239 196.638641,59.354481 
	C194.939102,57.392410 192.886734,55.735985 190.981491,53.952103 
z"/>
<path fill="#FA5555" opacity="1.000000" stroke="none" 
	d="
M290.399170,97.027298 
	C287.281281,97.802185 284.541748,98.346519 281.335297,98.983627 
	C281.335297,77.269264 281.335297,56.018742 281.335297,34.170742 
	C284.001770,33.641586 286.996277,33.047333 290.328400,32.386086 
	C290.550018,33.627903 290.848145,34.533241 290.853363,35.440266 
	C290.966736,55.078163 291.051758,74.716240 291.118744,94.354362 
	C291.121521,95.168091 290.896423,95.982590 290.399170,97.027298 
z"/>
<path fill="#D67D26" opacity="1.000000" stroke="none" 
	d="
M102.222435,108.842537 
	C101.164879,106.280800 100.298447,103.442131 99.523964,100.107559 
	C103.219498,96.426529 107.015076,93.431343 110.390015,90.020012 
	C119.831779,80.476410 129.124466,70.784500 138.403229,61.081547 
	C139.505463,59.928928 140.156754,58.345104 141.320679,57.100063 
	C143.402771,59.494034 145.181229,61.749104 146.959686,64.004173 
	C132.110977,78.857986 117.262268,93.711800 102.222435,108.842537 
z"/>
<path fill="#F18C1D" opacity="1.000000" stroke="none" 
	d="
M141.017059,56.961155 
	C140.156754,58.345104 139.505463,59.928928 138.403229,61.081547 
	C129.124466,70.784500 119.831779,80.476410 110.390015,90.020012 
	C107.015076,93.431343 103.219498,96.426529 99.336571,99.785728 
	C96.623734,99.700867 94.190239,99.441925 91.138481,98.949600 
	C90.482719,98.428055 90.445229,98.139893 90.407745,97.851746 
	C103.994492,84.268196 117.574814,70.678207 131.176392,57.109528 
	C132.813080,55.476803 134.564896,53.959503 136.707977,52.552917 
	C138.440750,54.131802 139.728912,55.546478 141.017059,56.961155 
z"/>
<path fill="#272321" opacity="1.000000" stroke="none" 
	d="
M139.915741,44.004227 
	C141.242950,40.592888 142.570160,37.181549 144.116425,33.111580 
	C143.790451,30.710716 143.755051,28.441618 142.602844,27.327101 
	C139.413589,24.242155 135.900925,21.431976 132.241501,18.911947 
	C129.430557,16.976208 128.464691,14.911708 130.008865,11.823569 
	C145.179779,12.807713 157.866867,19.062670 168.315399,29.980427 
	C169.437988,31.153435 170.211609,32.660423 171.132843,34.440140 
	C171.118576,34.867790 170.963394,35.036469 170.655121,34.956543 
	C169.238571,34.247746 168.130295,33.618874 166.843292,32.707417 
	C165.293716,30.990108 164.032974,29.426563 162.532303,28.143692 
	C156.997757,23.412457 156.595535,23.136843 151.891998,28.776722 
	C148.024963,33.413582 145.179794,38.902653 141.554443,44.013458 
	C140.790054,44.010014 140.352890,44.007122 139.915741,44.004227 
z"/>
<path fill="#282523" opacity="1.000000" stroke="none" 
	d="
M184.099762,76.375587 
	C181.173782,76.259308 175.028152,70.819008 174.520630,67.895851 
	C172.415375,55.770180 168.179443,53.654228 156.402130,59.047249 
	C156.028000,59.062393 155.978348,58.867538 156.081741,58.552891 
	C157.982208,56.897972 159.803452,55.588688 161.571350,54.210991 
	C165.295471,51.308868 169.137741,48.534046 172.648010,45.390388 
	C174.995163,43.288361 175.346252,40.581020 173.301880,37.978806 
	C173.811371,37.937244 174.014969,37.918198 174.218582,37.899147 
	C175.146973,39.084244 176.852158,40.254856 176.874557,41.456837 
	C176.997345,48.042530 180.808929,51.501808 186.608826,54.203369 
	C185.493958,56.346397 184.274643,58.132832 182.782501,59.651165 
	C175.861404,66.693817 175.841873,66.660400 182.374451,73.949860 
	C183.032471,74.684128 183.528534,75.563538 184.099762,76.375587 
z"/>
<path fill="#393634" opacity="1.000000" stroke="none" 
	d="
M184.409332,76.214111 
	C183.528534,75.563538 183.032471,74.684128 182.374451,73.949860 
	C175.841873,66.660400 175.861404,66.693817 182.782501,59.651165 
	C184.274643,58.132832 185.493958,56.346397 186.925095,54.355206 
	C188.070023,54.012302 189.128799,53.997650 190.584534,53.967552 
	C192.886734,55.735985 194.939102,57.392410 196.638641,59.354481 
	C197.567001,60.426239 197.898087,62.015369 198.306671,63.629074 
	C193.649490,67.942184 189.184189,71.997406 184.409332,76.214111 
z"/>
<path fill="#1B1917" opacity="1.000000" stroke="none" 
	d="
M129.673523,11.646423 
	C128.464691,14.911708 129.430557,16.976208 132.241501,18.911947 
	C135.900925,21.431976 139.413589,24.242155 142.602844,27.327101 
	C143.755051,28.441618 143.790451,30.710716 144.143677,32.734085 
	C135.923630,22.146109 123.537666,17.819090 112.096588,11.993893 
	C115.123627,9.333875 119.785500,9.221599 129.673523,11.646423 
z"/>
<path fill="#1E1B19" opacity="1.000000" stroke="none" 
	d="
M139.746521,44.268196 
	C140.352890,44.007122 140.790054,44.010014 141.603745,44.369576 
	C143.975662,47.171814 145.971054,49.617382 148.147644,52.339798 
	C150.878662,54.700275 153.428513,56.783909 155.978348,58.867538 
	C155.978348,58.867538 156.028000,59.062393 156.049408,59.162827 
	C154.828232,59.629314 153.485046,59.807201 152.366531,60.405258 
	C150.663849,61.315662 149.116806,62.517136 147.231674,63.799583 
	C145.181229,61.749104 143.402771,59.494034 141.320679,57.100060 
	C139.728912,55.546478 138.440750,54.131802 137.005371,52.426826 
	C137.764542,49.601742 138.670914,47.066952 139.746521,44.268196 
z"/>
<path fill="#77CE52" opacity="1.000000" stroke="none" 
	d="
M481.931458,127.993576 
	C482.937836,129.247192 483.975708,130.268250 484.209747,131.448685 
	C484.929047,135.076721 483.453369,137.655350 479.743225,138.485474 
	C476.442932,139.223862 474.164154,137.805740 473.567413,134.450760 
	C472.915833,130.787613 474.560272,128.324234 478.234283,127.534286 
	C479.284607,127.308456 480.471222,127.716499 481.931458,127.993576 
z"/>
<path fill="#2A2928" opacity="1.000000" stroke="none" 
	d="
M46.621990,141.019714 
	C42.928928,145.480759 39.104359,150.233139 34.831429,154.540771 
	C31.745193,157.652069 28.062973,160.172180 24.279659,162.994904 
	C31.374666,155.729446 38.836575,148.425034 46.621990,141.019714 
z"/>
<path fill="#2E2722" opacity="1.000000" stroke="none" 
	d="
M25.994415,186.007111 
	C26.397425,186.007492 26.800434,186.007874 27.502823,186.011078 
	C25.909821,192.467697 24.328423,192.925873 19.730412,188.320190 
	C18.202324,186.789581 16.726946,185.206375 15.367328,183.287766 
	C16.330235,182.617310 17.153288,182.306305 18.279968,182.143066 
	C23.353689,186.867859 23.353689,186.867859 25.994415,186.007111 
z"/>
<path fill="#2C2B27" opacity="1.000000" stroke="none" 
	d="
M73.618774,114.875824 
	C68.133873,120.455139 62.337933,126.186081 56.163063,131.927383 
	C61.625328,126.300980 67.466530,120.664215 73.618774,114.875824 
z"/>
<path fill="#D88124" opacity="1.000000" stroke="none" 
	d="
M25.690498,185.866791 
	C23.353689,186.867859 23.353689,186.867859 18.148785,181.837463 
	C15.338280,178.826492 12.962585,176.268906 10.586887,173.711334 
	C10.883504,173.499054 11.180123,173.286758 11.716200,172.939880 
	C15.018003,175.710892 18.089518,178.606949 21.138672,181.526352 
	C22.576771,182.903290 23.971952,184.325027 25.690498,185.866791 
z"/>
<path fill="#3B322C" opacity="1.000000" stroke="none" 
	d="
M10.275377,173.828705 
	C12.962585,176.268906 15.338280,178.826492 17.845158,181.689697 
	C17.153288,182.306305 16.330235,182.617310 15.183021,183.008423 
	C13.165267,181.570328 11.527889,179.982803 9.763507,178.551895 
	C7.672935,176.856476 7.785945,175.389679 10.275377,173.828705 
z"/>
<path fill="#2C2B27" opacity="1.000000" stroke="none" 
	d="
M90.105682,97.947784 
	C90.445229,98.139893 90.482719,98.428055 90.735046,99.095520 
	C87.152039,102.955589 83.354195,106.436356 79.178574,109.930748 
	C82.468407,105.977524 86.136009,102.010681 90.105682,97.947784 
z"/>
<path fill="#2A2928" opacity="1.000000" stroke="none" 
	d="
M53.673504,134.015289 
	C53.702198,137.816971 51.397251,139.993378 47.300278,140.923889 
	C49.090004,138.698715 51.245876,136.457077 53.673504,134.015289 
z"/>
<path fill="#272321" opacity="1.000000" stroke="none" 
	d="
M174.108734,37.591072 
	C174.014969,37.918198 173.811371,37.937244 173.049423,37.798782 
	C171.981827,36.773010 171.472610,35.904739 170.963394,35.036469 
	C170.963394,35.036469 171.118576,34.867790 171.197205,34.779663 
	C172.183517,35.555359 173.091202,36.419182 174.108734,37.591072 
z"/>
<path fill="#CC7925" opacity="1.000000" stroke="none" 
	d="
M94.277725,104.554619 
	C96.451424,106.919769 96.028709,108.796486 93.408844,109.561638 
	C92.558975,109.809853 90.411446,108.504456 90.234718,107.631020 
	C89.684982,104.914078 91.271347,103.798187 94.277725,104.554619 
z"/>
<path fill="#CC7825" opacity="1.000000" stroke="none" 
	d="
M70.651886,131.228439 
	C69.432854,132.534851 68.104637,133.485916 66.776421,134.436966 
	C66.415154,133.037506 66.053879,131.638062 65.692612,130.238602 
	C67.309311,130.450104 68.926010,130.661591 70.651886,131.228439 
z"/>
<path fill="#D37D26" opacity="1.000000" stroke="none" 
	d="
M84.321587,118.046738 
	C83.422295,116.509773 82.896599,114.993263 82.370911,113.476746 
	C83.788643,113.531639 85.206383,113.586540 86.624115,113.641434 
	C85.981140,115.116684 85.338165,116.591927 84.321587,118.046738 
z"/>
<path fill="#CC7825" opacity="1.000000" stroke="none" 
	d="
M78.816925,123.066742 
	C77.568649,124.356483 76.229301,125.282013 74.889946,126.207535 
	C74.552750,124.815575 74.215553,123.423615 73.878357,122.031654 
	C75.494186,122.255280 77.110016,122.478905 78.816925,123.066742 
z"/>
<path fill="#0C0404" opacity="1.000000" stroke="none" 
	d="
M364.052673,36.074284 
	C364.049255,33.279350 364.049255,30.963245 364.049255,28.471394 
	C368.485168,27.036659 369.457123,29.799397 369.881470,32.916832 
	C371.313934,43.440216 369.948029,47.229424 364.056091,47.928020 
	C364.056091,44.101543 364.056091,40.327328 364.052673,36.074284 
z"/>
<path fill="#110303" opacity="1.000000" stroke="none" 
	d="
M375.658447,120.370926 
	C374.243317,121.424606 373.034271,122.138397 371.191650,123.226204 
	C371.191650,115.856308 371.191650,109.333801 371.191650,102.806229 
	C374.938965,101.769211 376.199524,103.958778 376.280243,106.653526 
	C376.413605,111.104553 376.030151,115.571053 375.658447,120.370926 
z"/>
<path fill="#0C1408" opacity="1.000000" stroke="none" 
	d="
M530.226196,100.994232 
	C530.184082,93.348701 530.119324,86.201942 530.127991,79.055275 
	C530.129761,77.576927 530.032349,75.907875 530.664062,74.677635 
	C531.229004,73.577408 532.661072,72.520424 533.859985,72.314537 
	C534.474182,72.209061 535.620789,73.907532 536.142639,74.977982 
	C536.548157,75.809761 536.414795,76.930969 536.425293,77.924545 
	C536.547607,89.558228 536.666016,101.192017 536.741211,112.826065 
	C536.749695,114.140213 536.831909,115.640053 536.255554,116.720825 
	C535.648560,117.859077 534.292175,118.597672 533.263184,119.510902 
	C532.354248,118.486198 530.740051,117.515205 530.657227,116.427589 
	C530.279480,111.467316 530.331909,106.474297 530.226196,100.994232 
z"/>
<path fill="#160707" opacity="1.000000" stroke="none" 
	d="
M229.909485,70.818062 
	C230.192688,67.662727 230.451569,64.963646 230.710449,62.264568 
	C231.093399,62.280308 231.476349,62.296047 231.859314,62.311787 
	C232.666626,69.600143 233.473938,76.888504 234.317764,84.506409 
	C232.531448,84.980301 231.012054,85.383385 228.706741,85.994965 
	C229.126877,80.746788 229.506027,76.010551 229.909485,70.818062 
z"/>
<path fill="#0C0404" opacity="1.000000" stroke="none" 
	d="
M259.965210,53.182343 
	C259.963074,50.916454 259.963074,49.123005 259.963074,47.331635 
	C265.284546,46.425770 265.576294,49.906044 265.822662,53.056355 
	C266.831360,65.956055 265.919861,68.548416 259.967316,69.639244 
	C259.967316,64.266281 259.967316,58.960529 259.965210,53.182343 
z"/>
<path fill="#0F0303" opacity="1.000000" stroke="none" 
	d="
M345.975067,123.586945 
	C345.799042,127.228088 345.024719,129.923096 340.565857,130.257706 
	C340.565857,122.852844 340.565857,115.685013 340.565857,108.298820 
	C344.395294,107.140480 345.560577,109.658920 345.828156,112.671265 
	C346.136017,116.137421 345.951843,119.647278 345.975067,123.586945 
z"/>
<path fill="#343230" opacity="1.000000" stroke="none" 
	d="
M170.655121,34.956543 
	C171.472610,35.904739 171.981827,36.773010 172.743530,37.821304 
	C175.346252,40.581020 174.995163,43.288361 172.648010,45.390388 
	C169.137741,48.534046 165.295471,51.308868 161.571350,54.210991 
	C159.803452,55.588688 157.982208,56.897972 156.081741,58.552891 
	C153.428513,56.783909 150.878662,54.700275 148.330261,52.053261 
	C154.561813,45.323257 160.791916,39.156631 167.022018,32.990005 
	C168.130295,33.618874 169.238571,34.247746 170.655121,34.956543 
z"/>
<path fill="#383735" opacity="1.000000" stroke="none" 
	d="
M166.843292,32.707420 
	C160.791916,39.156631 154.561813,45.323257 148.149078,51.776417 
	C145.971054,49.617382 143.975662,47.171814 141.931000,44.370125 
	C145.179794,38.902653 148.024963,33.413582 151.891998,28.776722 
	C156.595535,23.136843 156.997757,23.412457 162.532303,28.143692 
	C164.032974,29.426563 165.293716,30.990108 166.843292,32.707420 
z"/>
</svg>